<?xml version="1.0" ?><svg enable-background="new 0 0 64 64" height="64px" id="Layer_1" version="1.1" viewBox="0 0 64 64" width="64px" xml:space="preserve" xmlns="http://www.w3.org/2000/svg" xmlns:xlink="http://www.w3.org/1999/xlink"><circle cx="32" cy="32" fill="#E0E0D1" r="32"/><g opacity="0.2"><path d="M19,13.83c-4.47,2.887-7.917,7.217-9.685,12.334L19,35.85V13.83z" fill="#231F20"/></g><g opacity="0.2"><path d="M8.425,29.516C8.15,30.969,8,32.467,8,34c0,3.57,0.785,6.955,2.184,10h12.725L8.425,29.516z" fill="#231F20"/></g><g opacity="0.2"><path d="M27.516,57.575C28.969,57.85,30.467,58,32,58c3.57,0,6.955-0.785,10-2.184V43.092L27.516,57.575z" fill="#231F20"/></g><g opacity="0.2"><path d="M11.83,47c2.887,4.47,7.217,7.917,12.334,9.685L33.85,47H11.83z" fill="#231F20"/></g><g opacity="0.2"><path d="M55.575,38.484C55.85,37.03,56,35.533,56,34c0-3.57-0.786-6.955-2.184-10H41.092L55.575,38.484z" fill="#231F20"/></g><g opacity="0.2"><path d="M45,54.17c4.47-2.887,7.917-7.218,9.685-12.335L45,32.15V54.17z" fill="#231F20"/></g><g opacity="0.2"><path d="M52.17,21c-2.887-4.47-7.218-7.917-12.334-9.685L30.15,21H52.17z" fill="#231F20"/></g><g opacity="0.2"><path d="M36.484,10.425C35.03,10.15,33.533,10,32,10c-3.57,0-6.955,0.785-10,2.184v12.725L36.484,10.425z" fill="#231F20"/></g><g><g><path d="M19,11.83c-4.47,2.887-7.917,7.217-9.685,12.334L19,33.85V11.83z" fill="#4F5D73"/></g><g><path d="M8.425,27.516C8.15,28.969,8,30.467,8,32c0,3.57,0.785,6.955,2.184,10h12.725L8.425,27.516z" fill="#4F5D73"/></g><g><path d="M27.516,55.575C28.969,55.85,30.467,56,32,56c3.57,0,6.955-0.785,10-2.184V41.092L27.516,55.575z" fill="#4F5D73"/></g><g><path d="M11.83,45c2.887,4.47,7.217,7.917,12.334,9.685L33.85,45H11.83z" fill="#4F5D73"/></g><g><path d="M55.575,36.484C55.85,35.03,56,33.533,56,32c0-3.57-0.786-6.955-2.184-10H41.092L55.575,36.484z" fill="#4F5D73"/></g><g><path d="M45,52.17c4.47-2.887,7.917-7.218,9.685-12.335L45,30.15V52.17z" fill="#4F5D73"/></g><g><path d="M52.17,19c-2.887-4.47-7.218-7.917-12.334-9.685L30.15,19H52.17z" fill="#4F5D73"/></g><g><path d="M36.484,8.425C35.03,8.15,33.533,8,32,8c-3.57,0-6.955,0.785-10,2.184v12.725L36.484,8.425z" fill="#4F5D73"/></g></g></svg>