<?xml version="1.0" ?><svg enable-background="new 0 0 64 64" height="64px" id="Layer_1" version="1.1" viewBox="0 0 64 64" width="64px" xml:space="preserve" xmlns="http://www.w3.org/2000/svg" xmlns:xlink="http://www.w3.org/1999/xlink"><circle cx="32" cy="32" fill="#76C2AF" r="32"/><g opacity="0.2"><g><path d="M32,52c-0.829,0-1.5-0.888-1.5-1.984V12.984C30.5,11.888,31.171,11,32,11s1.5,0.888,1.5,1.984v37.032    C33.5,51.112,32.829,52,32,52z" fill="#231F20"/></g><g><path d="M50.065,35H13.935C12.866,35,12,34.329,12,33.5s0.866-1.5,1.935-1.5h36.129C51.134,32,52,32.671,52,33.5    S51.134,35,50.065,35z" fill="#231F20"/></g><g><path d="M44.5,48.561c-0.384,0-0.768-0.146-1.061-0.439L16.879,21.561c-0.586-0.585-0.586-1.536,0-2.121    c0.586-0.586,1.535-0.586,2.121,0L45.561,46c0.586,0.585,0.586,1.536,0,2.121C45.268,48.414,44.884,48.561,44.5,48.561z" fill="#231F20"/></g><g><path d="M18.939,49c-0.384,0-0.768-0.146-1.061-0.439c-0.586-0.585-0.586-1.536,0-2.121l28.561-28.561    c0.586-0.586,1.535-0.586,2.121,0c0.586,0.585,0.586,1.536,0,2.121L20,48.561C19.707,48.854,19.323,49,18.939,49z" fill="#231F20"/></g></g><g><line fill="none" stroke="#FFFFFF" stroke-linecap="round" stroke-miterlimit="10" stroke-width="3" x1="32" x2="32" y1="12" y2="52"/><line fill="none" stroke="#FFFFFF" stroke-linecap="round" stroke-miterlimit="10" stroke-width="3" x1="52" x2="12" y1="31.5" y2="31.5"/><line fill="none" stroke="#FFFFFF" stroke-linecap="round" stroke-miterlimit="10" stroke-width="3" x1="46.142" x2="17.858" y1="46.142" y2="17.858"/><line fill="none" stroke="#FFFFFF" stroke-linecap="round" stroke-miterlimit="10" stroke-width="3" x1="17.858" x2="46.142" y1="46.142" y2="17.858"/></g><g opacity="0.2"><circle cx="32" cy="33" fill="#231F20" r="2"/></g><g><circle cx="32" cy="32" fill="#76C2AF" r="2"/></g><path d="M32,16c9.925,0,18,8.075,18,18s-8.075,18-18,18s-18-8.075-18-18S22.075,16,32,16 M32,12  c-12.15,0-22,9.85-22,22s9.85,22,22,22s22-9.85,22-22S44.15,12,32,12L32,12z" fill="#231F20" opacity="0.2"/><g><path d="M32,14c9.925,0,18,8.075,18,18s-8.075,18-18,18s-18-8.075-18-18S22.075,14,32,14 M32,10   c-12.15,0-22,9.85-22,22s9.85,22,22,22s22-9.85,22-22S44.15,10,32,10L32,10z" fill="#4F5D73"/></g></svg>