<?xml version="1.0" ?><svg enable-background="new 0 0 64 64" height="64px" version="1.1" viewBox="0 0 64 64" width="64px" xml:space="preserve" xmlns="http://www.w3.org/2000/svg" xmlns:xlink="http://www.w3.org/1999/xlink"><g id="Layer_1"><g><circle cx="31.833" cy="33" fill="#E0995E" r="32"/></g><g opacity="0.2"><g><path d="M37.562,28.062c-0.247,0-0.494-0.091-0.687-0.274c-0.401-0.38-0.418-1.013-0.039-1.414     c0.278-0.293,6.85-7.21,10.648-9.142c0.492-0.25,1.095-0.054,1.345,0.438s0.054,1.094-0.438,1.345     c-3.491,1.775-10.036,8.664-10.102,8.733C38.092,27.958,37.828,28.062,37.562,28.062z" fill="#231F20"/></g></g><g><path d="M37.562,25.062c0,0,6.688-7.062,10.375-8.938" fill="#E0E0D1"/><path d="M37.562,26.062c-0.247,0-0.494-0.091-0.687-0.273c-0.401-0.38-0.418-1.013-0.039-1.414    c0.278-0.294,6.85-7.21,10.648-9.142c0.494-0.248,1.094-0.055,1.345,0.438c0.25,0.492,0.054,1.094-0.438,1.345    c-3.491,1.774-10.036,8.664-10.102,8.733C38.092,25.958,37.828,26.062,37.562,26.062z" fill="#E0E0D1"/></g><g opacity="0.2"><ellipse cx="28" cy="38" fill="#231F20" rx="16" ry="16" transform="matrix(0.6737 -0.739 0.739 0.6737 -18.9456 33.0899)"/></g><g opacity="0.2"><path d="M38.86,34.059c-1.116,1.224-2.692,1.605-3.519,0.851l-4.993-4.553c-0.827-0.754-0.593-2.358,0.523-3.583    l4.042-4.434c1.116-1.224,2.692-1.605,3.519-0.851l4.993,4.553c0.827,0.754,0.593,2.358-0.523,3.583L38.86,34.059z" fill="#231F20"/></g><g><ellipse cx="28" cy="36" fill="#4F5D73" rx="16" ry="16" transform="matrix(0.6737 -0.739 0.739 0.6737 -17.4677 32.4373)"/></g><g><path d="M38.86,32.059c-1.116,1.224-2.692,1.605-3.519,0.851l-4.993-4.553c-0.827-0.754-0.593-2.358,0.523-3.583    l4.042-4.434c1.116-1.224,2.692-1.605,3.519-0.851l4.993,4.553c0.827,0.754,0.593,2.358-0.523,3.583L38.86,32.059z" fill="#4F5D73"/></g><g opacity="0.2"><circle cx="47" cy="18" fill="#231F20" r="4"/></g><g><circle cx="47" cy="17" fill="#C75C5C" r="4"/></g><g><circle cx="47" cy="17" fill="#F5CF87" r="2"/></g></g><g id="Layer_2"/></svg>