<?xml version="1.0" ?><svg enable-background="new 0 0 64 64" height="64px" version="1.1" viewBox="0 0 64 64" width="64px" xml:space="preserve" xmlns="http://www.w3.org/2000/svg" xmlns:xlink="http://www.w3.org/1999/xlink"><g id="Layer_1"><g><circle cx="32" cy="32" fill="#4F5D73" r="32"/></g><g opacity="0.2"><path d="M52,45c0,2.209-1.791,4-4,4H16c-2.209,0-4-1.791-4-4V25c0-2.209,1.791-4,4-4h32c2.209,0,4,1.791,4,4V45z" fill="#231F20"/></g><g><path d="M38,16v20H26V16H38 M38,12H26c-2.209,0-4,1.791-4,4v20c0,2.209,1.791,4,4,4h12c2.209,0,4-1.791,4-4V16    C42,13.791,40.209,12,38,12L38,12z" fill="#E0995E"/></g><g><g><path d="M12,28v15c0,2.209,1.791,4,4,4h32c2.209,0,4-1.791,4-4V28H12z" fill="#E0995E"/></g></g><g opacity="0.2"><path d="M52,25c0-2.209-1.791-4-4-4H16c-2.209,0-4,1.791-4,4v5h40V25z" fill="#231F20"/></g><g opacity="0.2"><g><path d="M40,32c0,2.209-1.791,4-4,4h-8c-2.209,0-4-1.791-4-4v-3c0-2.209,1.791-4,4-4h8c2.209,0,4,1.791,4,4V32z" fill="#231F20"/></g></g><g><path d="M36,27v3h-8v-3H36 M36,23h-8c-2.209,0-4,1.791-4,4v3c0,2.209,1.791,4,4,4h8c2.209,0,4-1.791,4-4v-3    C40,24.791,38.209,23,36,23L36,23z" fill="#F5CF87"/></g><g><path d="M52,23c0-2.209-1.791-4-4-4H16c-2.209,0-4,1.791-4,4v5h40V23z" fill="#E0995E"/></g></g><g id="Layer_2"/></svg>