<?xml version="1.0" ?><svg enable-background="new 0 0 64 64" height="64px" id="Layer_1" version="1.1" viewBox="0 0 64 64" width="64px" xml:space="preserve" xmlns="http://www.w3.org/2000/svg" xmlns:xlink="http://www.w3.org/1999/xlink"><circle cx="32" cy="32.188" fill="#4F5D73" r="32"/><path d="M56.824,33.433C56.637,33.162,56.329,33,56,33h-7.127l-4.064-5.588  C44.621,27.153,44.32,27,44,27h-4.568l-3.047-4.556C36.2,22.167,35.888,22,35.554,22H20.85c-0.506,0-0.933,0.378-0.993,0.881  L19.362,27H16c-0.483,0-0.897,0.346-0.984,0.821L14.075,33H10c-0.552,0-1,0.448-1,1c0,4.062,1.015,6.963,1.041,7.032  C11.502,46,14.654,46,16,46h26.8c9.582,0,13.953-11.168,14.134-11.644C57.052,34.049,57.01,33.704,56.824,33.433z" fill="#231F20" opacity="0.2"/><polygon fill="#E0E0D1" points="39.938,27.554   20.062,27.554 20.85,21 35.554,21 " stroke="#E0E0D1" stroke-linejoin="round" stroke-miterlimit="10" stroke-width="2"/><polygon fill="#E0E0D1" points="52,37 14,37   16,26 44,26 " stroke="#E0E0D1" stroke-linejoin="round" stroke-miterlimit="10" stroke-width="2"/><circle cx="23" cy="30" fill="#77B3D4" r="2"/><circle cx="31" cy="30" fill="#77B3D4" r="2"/><circle cx="39" cy="30" fill="#77B3D4" r="2"/><path d="M16,43  c0,0,17.797,0,26.8,0S56,32,56,32H10c0,3.936,1,6.75,1,6.75C12.25,43,14.687,43,16,43z" fill="#FFFFFF" stroke="#FFFFFF" stroke-linejoin="round" stroke-miterlimit="10" stroke-width="2"/></svg>