<?xml version="1.0" ?><svg enable-background="new 0 0 64 64" height="64px" id="Layer_1" version="1.1" viewBox="0 0 64 64" width="64px" xml:space="preserve" xmlns="http://www.w3.org/2000/svg" xmlns:xlink="http://www.w3.org/1999/xlink"><circle cx="32" cy="32" fill="#E0995E" r="32"/><path d="M50,23H37v22h8c1.105,0,2-0.895,2-2v-6c0,0,0-2,2-2h1c1.105,0,2-0.895,2-2v-8  C52,23.895,51.105,23,50,23z" fill="#231F20" opacity="0.2"/><path d="M36,49c0,1.105-0.895,2-2,2H18c-1.105,0-2-0.895-2-2V21c0-1.105,0.895-2,2-2h16  c1.105,0,2,0.895,2,2V49z" fill="#231F20" opacity="0.2"/><path d="M32,19c0,1.105-0.895,2-2,2h-8c-1.105,0-2-0.895-2-2l0,0c0-1.105,0.895-2,2-2h8  C31.105,17,32,17.895,32,19L32,19z" fill="#231F20" opacity="0.2"/><path d="M50,21H37v22h8c1.105,0,2-0.895,2-2v-6c0,0,0-2,2-2h1c1.105,0,2-0.895,2-2v-8C52,21.895,51.105,21,50,21z" fill="#F5CF87"/><path d="M36,47c0,1.105-0.895,2-2,2H18c-1.105,0-2-0.895-2-2V19c0-1.105,0.895-2,2-2h16c1.105,0,2,0.895,2,2V47z" fill="#4F5D73"/><path d="M32,17c0,1.105-0.895,2-2,2h-8c-1.105,0-2-0.895-2-2l0,0c0-1.105,0.895-2,2-2h8C31.105,15,32,15.895,32,17  L32,17z" fill="#4F5D73"/></svg>