<?xml version="1.0" ?><svg enable-background="new 0 0 64 64" height="64px" id="Layer_1" version="1.1" viewBox="0 0 64 64" width="64px" xml:space="preserve" xmlns="http://www.w3.org/2000/svg" xmlns:xlink="http://www.w3.org/1999/xlink"><circle cx="32" cy="32" fill="#4F5D73" r="32"/><g opacity="0.2"><path d="M16.5,28c-0.829,0-1.5-0.671-1.5-1.5v-8c0-0.829,0.671-1.5,1.5-1.5h8c0.829,0,1.5,0.671,1.5,1.5   S25.329,20,24.5,20H18v6.5C18,27.329,17.329,28,16.5,28z" fill="#231F20"/></g><g opacity="0.2"><path d="M47.5,28c-0.829,0-1.5-0.671-1.5-1.5V20h-6.5c-0.829,0-1.5-0.671-1.5-1.5s0.671-1.5,1.5-1.5h8   c0.829,0,1.5,0.671,1.5,1.5v8C49,27.329,48.329,28,47.5,28z" fill="#231F20"/></g><g opacity="0.2"><path d="M47.5,51h-8c-0.829,0-1.5-0.671-1.5-1.5s0.671-1.5,1.5-1.5H46v-6.5c0-0.829,0.671-1.5,1.5-1.5   c0.829,0,1.5,0.671,1.5,1.5v8C49,50.329,48.329,51,47.5,51z" fill="#231F20"/></g><g opacity="0.2"><path d="M24.5,51h-8c-0.829,0-1.5-0.671-1.5-1.5v-8c0-0.829,0.671-1.5,1.5-1.5c0.829,0,1.5,0.671,1.5,1.5V48h6.5   c0.829,0,1.5,0.671,1.5,1.5S25.329,51,24.5,51z" fill="#231F20"/></g><g opacity="0.2"><path d="M35,38.5h-6c-0.829,0-1.5-0.671-1.5-1.5v-6c0-0.829,0.671-1.5,1.5-1.5h6c0.829,0,1.5,0.671,1.5,1.5v6   C36.5,37.829,35.829,38.5,35,38.5z M30.5,35.5h3v-3h-3V35.5z" fill="#231F20"/></g><polyline fill="none" points="  16.5,24.5 16.5,16.5 24.5,16.5 " stroke="#FFFFFF" stroke-linecap="round" stroke-linejoin="round" stroke-miterlimit="10" stroke-width="3"/><polyline fill="none" points="  39.5,16.5 47.5,16.5 47.5,24.5 " stroke="#FFFFFF" stroke-linecap="round" stroke-linejoin="round" stroke-miterlimit="10" stroke-width="3"/><polyline fill="none" points="  47.5,39.5 47.5,47.5 39.5,47.5 " stroke="#FFFFFF" stroke-linecap="round" stroke-linejoin="round" stroke-miterlimit="10" stroke-width="3"/><polyline fill="none" points="  24.5,47.5 16.5,47.5 16.5,39.5 " stroke="#FFFFFF" stroke-linecap="round" stroke-linejoin="round" stroke-miterlimit="10" stroke-width="3"/><rect fill="none" height="6" stroke="#C75C5C" stroke-linecap="round" stroke-linejoin="round" stroke-miterlimit="10" stroke-width="3" width="6" x="29" y="29"/></svg>