<?xml version="1.0" ?><svg enable-background="new 0 0 64 64" height="64px" id="Layer_1" version="1.1" viewBox="0 0 64 64" width="64px" xml:space="preserve" xmlns="http://www.w3.org/2000/svg" xmlns:xlink="http://www.w3.org/1999/xlink"><circle cx="32" cy="32" fill="#E0995E" r="32"/><g><path d="M44,54H30c-1.104,0-2-0.896-2-2s0.896-2,2-2h14c1.104,0,2,0.896,2,2S45.104,54,44,54z" fill="#4F5D73"/></g><g opacity="0.2"><path d="M50,20H22c-1.104,0-2-0.896-2-2s0.896-2,2-2h28c1.104,0,2,0.896,2,2S51.104,20,50,20z" fill="#231F20"/></g><line fill="#4F5D73" stroke="#FFFFFF" stroke-linecap="round" stroke-miterlimit="10" stroke-width="3" x1="50" x2="22" y1="16.5" y2="16.5"/><path d="M37,25.5c0-0.505,0.031-1.003,0.076-1.496C37.05,24.004,37.026,24,37,24  c-3.867,0-7.383,1.472-10.041,3.878c-0.39,0.353-1.271,1.117-2.605,1.117c-3.088,0-14.375-3.594-14.375,0  c0,2.963,2.021,3.911,2.021,3.911l8.613,4.091c0,0,1.387,0.69,1.387,2.003c0,8.284,6.716,11,15,11c7.292,0,14.083-2.561,14.714-10.1  C43.442,39.009,37,34.009,37,25.5z" fill="#231F20" opacity="0.2"/><path d="M37,23.5c0-0.505,0.031-1.003,0.076-1.496C37.05,22.004,37.026,22,37,22c-3.867,0-7.383,1.472-10.041,3.878  C26.569,26.231,25.687,27,24.354,27C21.265,27,10,27,10,27l2,3.906l8.613,4.091c0,0,1.387,0.69,1.387,2.003c0,8.284,6.716,11,15,11  c7.292,0,13.363-1.205,14.714-8.1C43.442,39.009,37,32.009,37,23.5z" fill="#4F5D73"/><path d="M13,27c0.551,0,1,0.449,1,1s-0.449,1-1,1s-1-0.449-1-1S12.449,27,13,27 M13,23  c-2.761,0-5,2.239-5,5s2.239,5,5,5s5-2.239,5-5S15.761,23,13,23L13,23z" fill="#231F20" opacity="0.2"/><g><path d="M13,24c1.103,0,2,0.897,2,2s-0.897,2-2,2s-2-0.897-2-2S11.897,24,13,24 M13,21c-2.761,0-5,2.239-5,5   s2.239,5,5,5s5-2.239,5-5S15.761,21,13,21L13,21z" fill="#FFFFFF"/></g><path d="M37.076,22.004C37.031,22.497,37,22.995,37,23.5c0,8.509,6.442,15.509,14.714,16.4  C51.898,38.961,52,37.993,52,37C52,28.741,45.325,22.045,37.076,22.004z" fill="#E0E0D1"/></svg>