<?xml version="1.0" ?><svg enable-background="new 0 0 64 64" height="64px" id="Layer_1" version="1.1" viewBox="0 0 64 64" width="64px" xml:space="preserve" xmlns="http://www.w3.org/2000/svg" xmlns:xlink="http://www.w3.org/1999/xlink"><circle cx="32" cy="32" fill="#E0995E" r="32"/><path d="M51.361,18.371c-0.172-0.373-0.49-0.659-0.88-0.791c-0.39-0.133-0.816-0.099-1.18,0.093  c-0.041,0.021-4.174,2.165-9.08,2.166c-2.798,0-5.288-0.704-7.398-2.091c-0.5-0.329-1.148-0.329-1.648,0  c-2.11,1.388-4.599,2.091-7.398,2.091c-4.875,0-9.04-2.145-9.08-2.166c-0.364-0.191-0.791-0.226-1.177-0.094  c-0.389,0.131-0.707,0.416-0.88,0.788c-0.128,0.274-3.128,6.799-3.187,14.623v0v0c-0.065,8.934,3.738,20.432,22.226,24.476  C31.785,57.488,31.893,57.5,32,57.5c0.104,0,0.208-0.011,0.31-0.032c18.544-3.912,22.328-15.473,22.235-24.483  C54.465,25.17,51.488,18.645,51.361,18.371z" fill="#231F20" opacity="0.2"/><path d="  M10.954,30.5c-0.065,8.824,3.84,19.236,21.046,23c17.262-3.641,21.136-14.12,21.045-23H10.954z" fill="#4F5D73" stroke="#FFFFFF" stroke-linecap="round" stroke-linejoin="round" stroke-miterlimit="10" stroke-width="3"/><path d="  M50,16.5c0,0-10,5.26-18,0c-8,5.26-18,0-18,0s-2.99,6.413-3.046,14h42.091C52.967,22.918,50,16.5,50,16.5z" fill="#C75C5C" stroke="#FFFFFF" stroke-linecap="round" stroke-linejoin="round" stroke-miterlimit="10" stroke-width="3"/></svg>