<?xml version="1.0" ?><svg enable-background="new 0 0 64 64" height="64px" id="Layer_1" version="1.1" viewBox="0 0 64 64" width="64px" xml:space="preserve" xmlns="http://www.w3.org/2000/svg" xmlns:xlink="http://www.w3.org/1999/xlink"><circle cx="32" cy="32" fill="#E0E0D1" r="32"/><path d="M52,17H20c-1.105,0-2,0.895-2,2v2h-4c-2.206,0-4,1.794-4,4v7c0,2.206,1.794,4,4,4h18v19  c0,1.104,0.895,2,2,2c1.104,0,2-0.896,2-2V36c0-2.206-1.794-4-4-4H14v-7h4v2c0,1.105,0.895,2,2,2h17.5c0.828,0,1.5,0.672,1.5,1.5  s0.672,1.5,1.5,1.5c0.828,0,1.5-0.672,1.5-1.5s0.672-1.5,1.5-1.5c0.828,0,1.5,0.672,1.5,1.5v3c0,0.828,0.672,1.5,1.5,1.5  c0.828,0,1.5-0.672,1.5-1.5v-3c0-0.828,0.672-1.5,1.5-1.5c0.828,0,1.5,0.672,1.5,1.5v1c0,0.828,0.672,1.5,1.5,1.5  c0.828,0,1.5-0.672,1.5-1.5V27v-1.5V23v-4C54,17.895,53.105,17,52,17z" fill="#231F20" opacity="0.2"/><path d="M34,53V34  c0-1.105-0.895-2-2-2H14c-1.105,0-2-0.895-2-2v-7c0-1.105,0.895-2,2-2h18" fill="none" stroke="#4F5D73" stroke-linecap="round" stroke-miterlimit="10" stroke-width="4"/><path d="M54,29.5c0,0.828-0.672,1.5-1.5,1.5l0,0c-0.828,0-1.5-0.672-1.5-1.5v-6c0-0.828,0.672-1.5,1.5-1.5l0,0  c0.828,0,1.5,0.672,1.5,1.5V29.5z" fill="#C75C5C"/><path d="M48,31.5c0,0.828-0.672,1.5-1.5,1.5l0,0c-0.828,0-1.5-0.672-1.5-1.5v-6c0-0.828,0.672-1.5,1.5-1.5l0,0  c0.828,0,1.5,0.672,1.5,1.5V31.5z" fill="#C75C5C"/><path d="M51,24c0,0.828-0.672,1.5-1.5,1.5V26c-0.828,0-1.5-1.172-1.5-2v4.5c0-0.828,0.672-1.5,1.5-1.5l0,0  c0.828,0,1.5,0.672,1.5,1.5V24z" fill="#C75C5C"/><path d="M42,28.5c0,0.828-0.672,1.5-1.5,1.5l0,0c-0.828,0-1.5-0.672-1.5-1.5v-6c0-0.828,0.672-1.5,1.5-1.5l0,0  c0.828,0,1.5,0.672,1.5,1.5V28.5z" fill="#C75C5C"/><path d="M45,24c0,0.828-0.672,1.5-1.5,1.5V26c-0.828,0-1.5-1.172-1.5-2v4.5c0-0.828,0.672-1.5,1.5-1.5l0,0  c0.828,0,1.5,0.672,1.5,1.5V24z" fill="#C75C5C"/><path d="M39,24c0,0.828-0.672,1.5-1.5,1.5V26c-0.828,0-1.5-1.172-1.5-2v2c0-0.828,0.672,1,1.5,1l0,0  c0.828,0,1.5,0.672,1.5,1.5V24z" fill="#C75C5C"/><g><path d="M54,17c0-1.105-0.895-2-2-2H20c-1.105,0-2,0.895-2,2v4h36V17z" fill="#E0995E"/><path d="M18,17v8c0,1.105,0.895,2,2,2h32c1.105,0,2-0.895,2-2v-4L18,17z" fill="#C75C5C"/></g></svg>