<?xml version="1.0" ?><svg enable-background="new 0 0 64 64" height="64px" id="Layer_1" version="1.1" viewBox="0 0 64 64" width="64px" xml:space="preserve" xmlns="http://www.w3.org/2000/svg" xmlns:xlink="http://www.w3.org/1999/xlink"><circle cx="32" cy="32" fill="#C75C5C" r="32"/><ellipse cx="19.987" cy="43.923" fill="#231F20" opacity="0.2" rx="3" ry="3" transform="matrix(0.9767 -0.2146 0.2146 0.9767 -8.962 5.3139)"/><ellipse cx="47.334" cy="37.913" fill="#231F20" opacity="0.2" rx="3" ry="3" transform="matrix(0.9767 -0.2146 0.2146 0.9767 -7.0346 11.0438)"/><ellipse cx="19.987" cy="41.923" fill="#76C2AF" rx="3" ry="3" transform="matrix(0.9767 -0.2146 0.2146 0.9767 -8.5328 5.2673)"/><ellipse cx="47.334" cy="35.913" fill="#76C2AF" rx="3" ry="3" transform="matrix(0.9767 -0.2146 0.2146 0.9767 -6.6054 10.9972)"/><g opacity="0.2"><path d="M16.186,40c-3.977,0-7.782-2.35-8.264-2.658C6.992,36.747,6.72,35.51,7.315,34.58   c0.595-0.93,1.832-1.203,2.763-0.607c1.136,0.72,4.642,2.477,7.166,1.921l31.254-6.869c2.528-0.556,5.024-3.693,5.7-4.748   c0.595-0.931,1.832-1.203,2.762-0.607c0.931,0.595,1.202,1.832,0.607,2.762c-0.357,0.559-3.627,5.492-8.21,6.5L18.102,39.8   C17.468,39.939,16.825,40,16.186,40z" fill="#231F20"/></g><path d="M54.955,24  c0,0-3.048,4.765-6.955,5.624c0,0-27.347,6.01-31.254,6.869c-3.907,0.859-8.672-2.19-8.672-2.19" fill="none" stroke="#F5CF87" stroke-linecap="round" stroke-miterlimit="10" stroke-width="3"/></svg>