<?xml version="1.0" ?><svg enable-background="new 0 0 64 64" height="64px" id="Layer_1" version="1.1" viewBox="0 0 64 64" width="64px" xml:space="preserve" xmlns="http://www.w3.org/2000/svg" xmlns:xlink="http://www.w3.org/1999/xlink"><circle cx="32" cy="32" fill="#E0995E" r="32"/><circle cx="32" cy="25" fill="#231F20" opacity="0.2" r="8"/><path d="M41,53.714C41,54.977,39.993,56,38.75,56h-13.5C24.007,56,23,54.977,23,53.714V26.286  C23,25.023,24.007,24,25.25,24h13.5c1.243,0,2.25,1.023,2.25,2.286V53.714z" fill="#231F20" opacity="0.2"/><rect fill="#231F20" height="3" opacity="0.2" width="3" x="30.5" y="11"/><circle cx="32" cy="23" fill="#E0E0D1" r="8"/><path d="M41,51.714C41,52.977,39.993,54,38.75,54h-13.5C24.007,54,23,52.977,23,51.714V24.286  C23,23.023,24.007,22,25.25,22h13.5c1.243,0,2.25,1.023,2.25,2.286V51.714z" fill="#FFFFFF"/><rect fill="#FFFFFF" height="3" width="3" x="30.5" y="10"/><circle cx="32" cy="36.99" fill="#C75C5C" r="6.01"/></svg>