<?xml version="1.0" ?><svg enable-background="new 0 0 64 64" height="64px" id="Layer_1" version="1.1" viewBox="0 0 64 64" width="64px" xml:space="preserve" xmlns="http://www.w3.org/2000/svg" xmlns:xlink="http://www.w3.org/1999/xlink"><circle cx="32" cy="32" fill="#E0995E" r="32"/><path d="M46,53c0,1.105-0.895,2-2,2H20c-1.105,0-2-0.895-2-2V15c0-1.105,0.895-2,2-2h24  c1.105,0,2,0.895,2,2V53z" fill="#231F20" opacity="0.2"/><path d="M46,51c0,1.105-0.895,2-2,2H20c-1.105,0-2-0.895-2-2V13c0-1.105,0.895-2,2-2h24c1.105,0,2,0.895,2,2V51z" fill="#F5CF87"/><circle cx="32" cy="39.5" fill="#4F5D73" r="10.5"/><g opacity="0.2"><path d="M32,31c5.461,0,9.945,4.171,10.449,9.5c0.031-0.329,0.051-0.662,0.051-1C42.5,33.701,37.799,29,32,29   s-10.5,4.701-10.5,10.5c0,0.338,0.019,0.671,0.05,1C22.054,35.171,26.539,31,32,31z" fill="#231F20"/></g><circle cx="32" cy="20.5" fill="#4F5D73" r="6.5"/><circle cx="32" cy="41.833" fill="#231F20" opacity="0.2" r="2.444"/><circle cx="32" cy="22.364" fill="#231F20" opacity="0.2" r="2.364"/><circle cx="32" cy="40" fill="#4F5D73" r="2.444"/><circle cx="32" cy="20.5" fill="#4F5D73" r="2.364"/><path d="M32,16c4,0,5.831,2.657,6.387,5.682c0.071-0.384,0.113-0.778,0.113-1.182  c0-3.59-2.91-6.5-6.5-6.5c-3.59,0-6.5,2.91-6.5,6.5c0,0.404,0.042,0.798,0.112,1.182C26.169,18.657,28,16,32,16z" fill="#231F20" opacity="0.2"/></svg>