<?xml version="1.0" ?><svg enable-background="new 0 0 64 64" height="64px" id="Layer_1" version="1.1" viewBox="0 0 64 64" width="64px" xml:space="preserve" xmlns="http://www.w3.org/2000/svg" xmlns:xlink="http://www.w3.org/1999/xlink"><circle cx="32" cy="32" fill="#4F5D73" r="32"/><g opacity="0.2"><path d="M19.28,51.047c-1.032,0.394-2.188-0.124-2.582-1.156l-2.852-7.474c-0.394-1.032,0.124-2.188,1.156-2.582   l33.634-12.834c1.032-0.394,2.188,0.124,2.582,1.156l2.852,7.474c0.394,1.032-0.124,2.188-1.156,2.582L19.28,51.047z" fill="#231F20"/></g><g><path d="M19.2,48.282c-0.412,0-0.788-0.259-0.935-0.644l-2.853-7.474c-0.096-0.25-0.088-0.521,0.021-0.765   s0.307-0.43,0.557-0.525l33.634-12.835c0.115-0.044,0.235-0.066,0.356-0.066c0.412,0,0.788,0.258,0.935,0.644l2.852,7.475   c0.096,0.25,0.088,0.521-0.021,0.765c-0.109,0.244-0.307,0.43-0.557,0.526L19.556,48.216C19.44,48.26,19.321,48.282,19.2,48.282z" fill="#77B3D4"/><path d="M49.982,26.973L49.982,26.973l2.852,7.474L19.2,47.282l-2.852-7.474L49.982,26.973 M49.981,24.972   c-0.237,0-0.478,0.042-0.713,0.132L15.634,37.939c-1.032,0.394-1.549,1.55-1.156,2.582l2.852,7.474   c0.304,0.797,1.063,1.287,1.869,1.287c0.237,0,0.478-0.042,0.713-0.132l33.634-12.834c1.032-0.394,1.549-1.55,1.156-2.582   L51.85,26.26C51.546,25.463,50.787,24.972,49.981,24.972L49.981,24.972z" fill="#E0E0D1"/></g><g opacity="0.2"><path d="M20.983,51.426c-0.919,0.613-2.161,0.365-2.774-0.554l-4.44-6.655c-0.613-0.919-0.365-2.161,0.554-2.774   l29.947-19.979c0.919-0.613,2.161-0.365,2.774,0.554l4.44,6.655c0.613,0.919,0.365,2.161-0.554,2.774L20.983,51.426z" fill="#231F20"/></g><g><path d="M20.508,48.865c-0.336,0-0.648-0.167-0.834-0.446l-4.439-6.655c-0.148-0.222-0.201-0.489-0.149-0.75   c0.053-0.262,0.204-0.488,0.426-0.637l29.947-19.978c0.165-0.11,0.356-0.168,0.554-0.168c0.336,0,0.647,0.167,0.833,0.445   l4.439,6.655c0.148,0.222,0.201,0.489,0.149,0.75c-0.053,0.262-0.204,0.488-0.426,0.637L21.061,48.696   C20.896,48.807,20.704,48.865,20.508,48.865z" fill="#76C2AF"/><path d="M46.013,21.231L46.013,21.231l4.44,6.655L20.505,47.864l-4.44-6.655L46.013,21.231 M46.011,19.23   c-0.381,0-0.767,0.109-1.108,0.336L14.956,39.546c-0.919,0.613-1.167,1.855-0.554,2.774l4.44,6.655   c0.385,0.578,1.02,0.89,1.666,0.89c0.381,0,0.767-0.109,1.108-0.336l29.947-19.979c0.919-0.613,1.167-1.855,0.554-2.774   l-4.44-6.655C47.291,19.543,46.657,19.23,46.011,19.23L46.011,19.23z" fill="#E0E0D1"/></g><g opacity="0.2"><path d="M22.597,51.43c-0.773,0.789-2.039,0.801-2.828,0.028l-5.713-5.601c-0.789-0.773-0.801-2.04-0.028-2.828   l25.203-25.706c0.773-0.789,2.04-0.801,2.828-0.028l5.713,5.601c0.789,0.773,0.801,2.04,0.028,2.828L22.597,51.43z" fill="#231F20"/></g><g><path d="M21.801,49.133c-0.264,0-0.513-0.102-0.7-0.286l-5.712-5.601c-0.191-0.188-0.298-0.438-0.301-0.705   c-0.002-0.267,0.1-0.519,0.286-0.709l25.203-25.707c0.189-0.193,0.443-0.3,0.714-0.3c0.264,0,0.512,0.102,0.7,0.286l5.712,5.6   c0.191,0.188,0.298,0.438,0.301,0.705c0.002,0.267-0.1,0.519-0.286,0.709L22.515,48.833C22.325,49.026,22.071,49.133,21.801,49.133   z" fill="#F5CF87"/><path d="M41.291,16.826L41.291,16.826l5.713,5.601L21.801,48.133l-5.713-5.601l25.201-25.706   C41.289,16.826,41.29,16.826,41.291,16.826 M41.291,14.826c-0.518,0-1.037,0.2-1.428,0.6L14.66,41.132   c-0.773,0.789-0.761,2.055,0.028,2.828l5.713,5.601c0.389,0.382,0.895,0.572,1.4,0.572c0.518,0,1.037-0.2,1.428-0.6l25.203-25.706   c0.773-0.789,0.761-2.055-0.028-2.828l-5.713-5.601C42.302,15.016,41.796,14.826,41.291,14.826L41.291,14.826z" fill="#FFFFFF"/></g><g opacity="0.2"><path d="M24.389,51.032c-0.568,0.948-1.796,1.255-2.744,0.687l-6.862-4.112c-0.947-0.568-1.255-1.796-0.687-2.744   l18.506-30.879c0.568-0.948,1.796-1.255,2.744-0.687l6.862,4.113c0.947,0.568,1.255,1.796,0.687,2.744L24.389,51.032z" fill="#231F20"/></g><g><path d="M23.304,49.107c-0.18,0-0.356-0.049-0.512-0.143l-6.863-4.113c-0.229-0.137-0.391-0.355-0.455-0.614   c-0.065-0.259-0.025-0.528,0.112-0.757l18.506-30.879c0.183-0.305,0.504-0.486,0.859-0.486c0.18,0,0.356,0.049,0.512,0.143   l6.863,4.112c0.473,0.283,0.627,0.899,0.344,1.372L24.164,48.621C23.981,48.926,23.659,49.107,23.304,49.107z" fill="#E0995E"/><path d="M34.95,13.115L34.95,13.115l6.862,4.113L23.306,48.107l-6.862-4.113l18.504-30.878   C34.948,13.116,34.949,13.116,34.95,13.115 M34.952,11.115c-0.68,0-1.343,0.347-1.717,0.972L14.728,42.966   c-0.568,0.947-0.26,2.176,0.687,2.744l6.862,4.113c0.322,0.193,0.676,0.285,1.026,0.285c0.68,0,1.343-0.347,1.717-0.972   l18.506-30.879c0.568-0.948,0.26-2.176-0.687-2.744L35.978,11.4C35.656,11.207,35.302,11.115,34.952,11.115L34.952,11.115z" fill="#FFFFFF"/></g><g opacity="0.2"><path d="M25.923,50.3c-0.349,1.048-1.482,1.614-2.53,1.265l-7.59-2.53c-1.048-0.349-1.614-1.482-1.265-2.53   l11.384-34.153c0.349-1.048,1.482-1.614,2.53-1.265l7.59,2.53c1.048,0.349,1.614,1.482,1.265,2.53L25.923,50.3z" fill="#231F20"/></g><g><path d="M24.659,48.771c-0.106,0-0.213-0.018-0.316-0.052l-7.59-2.53c-0.254-0.084-0.459-0.262-0.578-0.501   c-0.119-0.239-0.139-0.51-0.055-0.763l11.384-34.152c0.137-0.41,0.519-0.685,0.949-0.685c0.107,0,0.214,0.018,0.316,0.052   l7.59,2.53c0.254,0.084,0.459,0.262,0.578,0.501c0.12,0.239,0.139,0.51,0.055,0.763L25.607,48.086   C25.471,48.496,25.09,48.771,24.659,48.771z" fill="#C75C5C"/><path d="M28.455,11.088l7.588,2.529L24.658,47.77l-7.589-2.53L28.455,11.088 M28.453,9.087   c-0.837,0-1.618,0.53-1.897,1.368L15.172,44.608c-0.349,1.048,0.217,2.181,1.265,2.53l7.589,2.53   c0.21,0.07,0.423,0.103,0.633,0.103c0.837,0,1.618-0.53,1.897-1.368L37.94,14.25c0.349-1.048-0.217-2.181-1.265-2.53l-7.59-2.53   C28.876,9.121,28.663,9.087,28.453,9.087L28.453,9.087z" fill="#FFFFFF"/></g><ellipse cx="22.105" cy="42.834" fill="#231F20" opacity="0.2" rx="1.875" ry="1.875" transform="matrix(0.3162 -0.9487 0.9487 0.3162 -25.5217 50.2598)"/><ellipse cx="22.5" cy="41.649" fill="#FFFFFF" rx="1.875" ry="1.875" transform="matrix(0.3162 -0.9487 0.9487 0.3162 -24.1266 49.8228)"/></svg>