<?xml version="1.0" ?><svg enable-background="new 0 0 64 64" height="64px" id="Layer_1" version="1.1" viewBox="0 0 64 64" width="64px" xml:space="preserve" xmlns="http://www.w3.org/2000/svg" xmlns:xlink="http://www.w3.org/1999/xlink"><circle cx="32" cy="32" fill="#C75C5C" r="32"/><g opacity="0.2"><path d="M47.5,38c1.748,0,3.332,0.694,4.5,1.816V34c0-2.209-1.791-4-4-4H37.585c-1.48-5.266-3.468-12.376-3.585-13   c0-1.105-0.895-2-2-2H20c-1.105,0-2,0.895-2,2c0,0.555,0,5.706,0,10.697C19.253,27.254,20.595,27,22,27v-8h8.384   c0.571,2.158,1.812,6.612,3.045,11H30c-0.025,0-0.048,0.007-0.073,0.007C32.419,32.206,34,35.415,34,39   c0,2.188-0.595,4.234-1.618,6h8.644C41.013,44.834,41,44.669,41,44.5C41,40.91,43.91,38,47.5,38z" fill="#231F20"/><circle cx="22" cy="39" fill="#231F20" r="8"/><circle cx="47.5" cy="44.5" fill="#231F20" r="2.5"/></g><g><path d="M30.384,17c0.663,2.505,2.228,8.104,3.635,13.101L22,31.094V17H30.384 M32,13H20c-1.105,0-2,0.895-2,2   s0,20.438,0,20.438l21.188-1.751c0,0-5-17.688-5.188-18.688C34,13.895,33.105,13,32,13L32,13z" fill="#76C2AF"/></g><path d="M52,39c0,2.209-1.791,4-4,4H30c-2.209,0-4-1.791-4-4v-7c0-2.209,1.791-4,4-4h18c2.209,0,4,1.791,4,4V39z" fill="#76C2AF"/><circle cx="22" cy="37" fill="#F5CF87" r="8"/><circle cx="47.5" cy="42.5" fill="#F5CF87" r="2.5"/><path d="M29.927,30.007C27.812,28.141,25.042,27,22,27c-1.405,0-2.747,0.254-4,0.697  c-4.658,1.649-8,6.08-8,11.303c0,6.627,5.373,12,12,12c4.439,0,8.306-2.417,10.382-6C33.405,43.234,34,41.188,34,39  C34,35.415,32.419,32.206,29.927,30.007z M22,47c-4.411,0-8-3.589-8-8c0-4.411,3.589-8,8-8s8,3.589,8,8C30,43.411,26.411,47,22,47z" fill="#231F20" opacity="0.2"/><path d="M52,39.816C50.832,38.694,49.248,38,47.5,38c-3.59,0-6.5,2.91-6.5,6.5  c0,0.169,0.013,0.334,0.025,0.5c0.256,3.355,3.054,6,6.475,6c3.59,0,6.5-2.91,6.5-6.5C54,42.658,53.231,40.999,52,39.816z M50,44.5  c0,1.378-1.122,2.5-2.5,2.5S45,45.878,45,44.5c0-1.379,1.122-2.5,2.5-2.5S50,43.121,50,44.5z" fill="#231F20" opacity="0.2"/><path d="M22,25c-6.627,0-12,5.373-12,12c0,6.627,5.373,12,12,12s12-5.373,12-12C34,30.373,28.627,25,22,25z M22,45  c-4.411,0-8-3.589-8-8c0-4.411,3.589-8,8-8s8,3.589,8,8C30,41.411,26.411,45,22,45z" fill="#4F5D73"/><path d="M47.5,36c-3.59,0-6.5,2.91-6.5,6.5s2.91,6.5,6.5,6.5s6.5-2.91,6.5-6.5S51.09,36,47.5,36z M47.5,45  c-1.378,0-2.5-1.122-2.5-2.5c0-1.379,1.122-2.5,2.5-2.5s2.5,1.121,2.5,2.5C50,43.878,48.878,45,47.5,45z" fill="#4F5D73"/><path d="M34,15l-3.609,2c0,0,0.531,2.078,0.531,2H34c1.105,0,2-0.895,2-2C36,15.895,35.105,15,34,15z" fill="#231F20" opacity="0.2"/><path d="M36,15c0,1.105-0.895,2-2,2H20c-1.105,0-2-0.895-2-2l0,0c0-1.105,0.895-2,2-2h14C35.105,13,36,13.895,36,15  L36,15z" fill="#76C2AF"/></svg>