<?xml version="1.0" ?><svg enable-background="new 0 0 64 64" height="64px" version="1.1" viewBox="0 0 64 64" width="64px" xml:space="preserve" xmlns="http://www.w3.org/2000/svg" xmlns:xlink="http://www.w3.org/1999/xlink"><g id="Layer_1"><g><circle cx="32" cy="32" fill="#77B3D4" r="32"/></g><g opacity="0.2"><path d="M44,54c0,1.657-1.343,3-3,3H23c-1.657,0-3-1.343-3-3V14c0-1.657,1.343-3,3-3h18c1.657,0,3,1.343,3,3V54z" fill="#231F20"/></g><g><path d="M44,52c0,1.657-1.343,3-3,3H23c-1.657,0-3-1.343-3-3V12c0-1.657,1.343-3,3-3h18c1.657,0,3,1.343,3,3V52z" fill="#4F5D73"/></g><g opacity="0.2"><circle cx="32" cy="34" fill="#231F20" r="5"/></g><g opacity="0.2"><circle cx="32" cy="21" fill="#231F20" r="5"/></g><g opacity="0.2"><circle cx="32" cy="47" fill="#231F20" r="5"/></g><g><circle cx="32" cy="32" fill="#F5CF87" r="5"/></g><g><circle cx="32" cy="19" fill="#C75C5C" r="5"/></g><g><circle cx="32" cy="45" fill="#76C2AF" r="5"/></g></g><g id="Layer_2"/></svg>