<?xml version="1.0" ?><svg enable-background="new 0 0 64 64" height="64px" version="1.1" viewBox="0 0 64 64" width="64px" xml:space="preserve" xmlns="http://www.w3.org/2000/svg" xmlns:xlink="http://www.w3.org/1999/xlink"><g id="Layer_1"><g><circle cx="32" cy="32" fill="#C75C5C" r="32"/></g><g opacity="0.2"><path d="M50.187,43.375c-2.018-1.516-8.375-4.188-8.375-4.188s-7,5.438-14-6C19.715,19.957,16,18,16,18s-4,4-4,8    s4,10,4,22c0,1.105,0.895,2,2,2s2-0.895,2-2V34c0,0,4,0,8,8s8,8,12,8s12-0.188,12-1.688C52,46.567,52.379,45.022,50.187,43.375z" fill="#231F20"/></g><g><path d="M16,16c0,0-4,4-4,8s4,10,4,22h4V32c0,0,4,0,8,8s8,8,12,8s12-0.188,12-1.688    c0-1.746,0.379-3.291-1.813-4.938c-2.018-1.516-8.375-4.188-8.375-4.188s-7,5.438-14-6C19.715,17.957,16,16,16,16z" fill="#FFFFFF"/></g><g><path d="M20,46c0,1.105-0.895,2-2,2l0,0c-1.105,0-2-0.895-2-2l0,0c0-1.105,0.895-2,2-2l0,0    C19.105,44,20,44.895,20,46L20,46z" fill="#FFFFFF"/></g></g><g id="Layer_2"/></svg>