<?xml version="1.0" ?><svg enable-background="new 0 0 64 64" height="64px" id="Layer_1" version="1.1" viewBox="0 0 64 64" width="64px" xml:space="preserve" xmlns="http://www.w3.org/2000/svg" xmlns:xlink="http://www.w3.org/1999/xlink"><circle cx="32" cy="32" fill="#F5CF87" r="32"/><path d="M34.485,50c0,1.105-0.895,2-2,2h-12c-1.105,0-2-0.895-2-2V26c0-1.105,0.895-2,2-2h12c1.105,0,2,0.895,2,2V50  z" fill="#4F5D73"/><path d="M31.642,38.157c-0.781,0.781-2.047,0.781-2.828,0l-8.485-8.485c-0.781-0.781-0.781-2.047,0-2.829  L37.299,9.873c0.781-0.781,2.047-0.781,2.828,0l8.485,8.485c0.781,0.781,0.781,2.047,0,2.828L31.642,38.157z" fill="#FFFFFF"/><path d="M27.899,44.87c-0.781,0.781-2.047,0.781-2.828,0l-8.485-8.485  c-0.781-0.781-0.781-2.047,0-2.828l16.97-16.971c0.781-0.781,2.047-0.781,2.829,0l8.485,8.485c0.781,0.781,0.781,2.047,0,2.828  L27.899,44.87z" fill="#231F20" opacity="0.2"/><path d="M27.899,41.9c-0.781,0.781-2.047,0.781-2.828,0l-8.485-8.485c-0.781-0.781-0.781-2.047,0-2.828l16.97-16.971  c0.781-0.781,2.047-0.781,2.829,0l8.485,8.485c0.781,0.781,0.781,2.047,0,2.828L27.899,41.9z" fill="#4F5D73"/><circle cx="26.5" cy="32.5" fill="#231F20" opacity="0.2" r="6.5"/><circle cx="26.5" cy="31.827" fill="#4F5D73" r="6.014"/></svg>