<?xml version="1.0" ?><svg enable-background="new 0 0 64 64" height="64px" id="Layer_1" version="1.1" viewBox="0 0 64 64" width="64px" xml:space="preserve" xmlns="http://www.w3.org/2000/svg" xmlns:xlink="http://www.w3.org/1999/xlink"><circle cx="32" cy="32" fill="#4F5D73" r="32"/><path d="M37,21v18H15V21H37 M37,18H15c-1.657,0-3,1.343-3,3v18c0,1.657,1.343,3,3,3h22  c1.657,0,3-1.343,3-3V21C40,19.343,38.657,18,37,18L37,18z" fill="#231F20" opacity="0.2"/><g opacity="0.2"><path d="M48.5,52H24c-0.829,0-1.5-0.671-1.5-1.5S23.171,49,24,49h23V30c0-0.829,0.671-1.5,1.5-1.5   c0.829,0,1.5,0.671,1.5,1.5v20.5C50,51.329,49.329,52,48.5,52z" fill="#231F20"/></g><g opacity="0.2"><path d="M43.5,47H19c-0.829,0-1.5-0.671-1.5-1.5S18.171,44,19,44h23V25c0-0.829,0.671-1.5,1.5-1.5   c0.829,0,1.5,0.671,1.5,1.5v20.5C45,46.329,44.329,47,43.5,47z" fill="#231F20"/></g><path d="M37,19v18H15V19H37 M37,16H15c-1.657,0-3,1.343-3,3v18c0,1.657,1.343,3,3,3h22c1.657,0,3-1.343,3-3V19  C40,17.343,38.657,16,37,16L37,16z" fill="#FFFFFF"/><g><path d="M48.5,50H24c-0.829,0-1.5-0.671-1.5-1.5S23.171,47,24,47h23V28c0-0.829,0.671-1.5,1.5-1.5   c0.829,0,1.5,0.671,1.5,1.5v20.5C50,49.329,49.329,50,48.5,50z" fill="#E0E0D1"/></g><g><path d="M43.5,45H19c-0.829,0-1.5-0.671-1.5-1.5S18.171,42,19,42h23V23c0-0.829,0.671-1.5,1.5-1.5   c0.829,0,1.5,0.671,1.5,1.5v20.5C45,44.329,44.329,45,43.5,45z" fill="#E0E0D1"/></g></svg>