<?xml version="1.0" ?><svg enable-background="new 0 0 64 64" height="64px" version="1.1" viewBox="0 0 64 64" width="64px" xml:space="preserve" xmlns="http://www.w3.org/2000/svg" xmlns:xlink="http://www.w3.org/1999/xlink"><g id="Layer_1"><g><circle cx="32" cy="32" fill="#E0E0D1" r="32"/></g><g opacity="0.2"><g><path d="M55,31c0-11.046-8.954-20-20-20v20H55z" fill="#231F20"/></g></g><g><path d="M55,29c0-11.046-8.954-20-20-20v20H55z" fill="#4F5D73"/></g><g opacity="0.2"><g><path d="M31,13C18.85,13,9,22.85,9,35s9.85,22,22,22c5.692,0,10.88-2.162,14.786-5.71L31,35V13z" fill="#231F20"/></g></g><g><g><path d="M31,11C18.85,11,9,20.85,9,33s9.85,22,22,22c5.692,0,10.88-2.162,14.786-5.71L31,33V11z" fill="#76C2AF"/></g></g><g opacity="0.2"><g><path d="M53,33H31v2l14.786,16.29C50.217,47.266,53,39.458,53,33z" fill="#231F20"/></g></g><g><path d="M53,33H31l14.786,16.29C50.217,45.266,53,39.458,53,33z" fill="#C75C5C"/></g></g><g id="Layer_2"/></svg>