<?xml version="1.0" ?><svg enable-background="new 0 0 64 64" height="64px" id="Layer_1" version="1.1" viewBox="0 0 64 64" width="64px" xml:space="preserve" xmlns="http://www.w3.org/2000/svg" xmlns:xlink="http://www.w3.org/1999/xlink"><circle cx="32" cy="32" fill="#4F5D73" r="32"/><g opacity="0.2"><path d="M33.99,31.206l-2.605,1.563c1.503,1.783,2.393,4.078,2.393,6.561c0,5.608-4.562,10.17-10.17,10.17   c-5.607,0-10.169-4.562-10.169-10.17c0-3.078,1.372-5.957,3.764-7.899c0.643-0.522,0.741-1.467,0.219-2.11   c-0.522-0.642-1.467-0.741-2.11-0.219c-3.097,2.515-4.872,6.243-4.872,10.228c0,7.262,5.908,13.17,13.169,13.17   s13.17-5.908,13.17-13.17C36.777,36.288,35.75,33.459,33.99,31.206z" fill="#231F20"/></g><path d="M26.317,25.232  c5.138,1.222,8.96,5.841,8.96,11.354c0,6.445-5.225,11.67-11.67,11.67s-11.67-5.225-11.67-11.67c0-3.659,1.684-6.924,4.318-9.064" fill="none" stroke="#76C2AF" stroke-linecap="round" stroke-miterlimit="10" stroke-width="3"/><g opacity="0.2"><path d="M31.995,38.33c-7.262,0-13.169-5.908-13.169-13.169c0-7.262,5.908-13.17,13.169-13.17   c6.142,0,11.552,4.348,12.865,10.339c0.177,0.81-0.335,1.609-1.144,1.787c-0.811,0.176-1.609-0.335-1.787-1.144   c-1.013-4.625-5.191-7.982-9.934-7.982c-5.607,0-10.169,4.562-10.169,10.17c0,5.607,4.562,10.169,10.169,10.169   c2.953,0,5.756-1.281,7.691-3.516c0.543-0.627,1.49-0.694,2.116-0.152c0.626,0.542,0.694,1.49,0.152,2.116   C39.448,36.67,35.818,38.33,31.995,38.33z" fill="#231F20"/></g><path d="M40.819,30.051  c-2.14,2.471-5.3,4.034-8.825,4.034c-6.445,0-11.67-5.225-11.67-11.67s5.225-11.67,11.67-11.67c5.584,0,10.251,3.921,11.399,9.16" fill="none" stroke="#C75C5C" stroke-linecap="round" stroke-miterlimit="10" stroke-width="3"/><path d="M27.161,39.33c0,1.229,0.17,2.446,0.503,3.617c0.227,0.796,1.055,1.255,1.854,1.031  c0.796-0.227,1.258-1.057,1.031-1.854c-0.257-0.903-0.388-1.843-0.388-2.794c0-2.526,0.931-4.834,2.461-6.614l-2.407-1.805  C28.31,33.195,27.161,36.13,27.161,39.33z" fill="#231F20" opacity="0.2"/><g opacity="0.2"><path d="M40.33,26.161c-4.062,0-7.698,1.85-10.116,4.75l2.407,1.805c1.867-2.172,4.627-3.555,7.709-3.555   c5.608,0,10.17,4.562,10.17,10.17c0,5.608-4.562,10.17-10.17,10.17c-1.391,0-2.739-0.276-4.006-0.819   c-0.759-0.328-1.644,0.024-1.97,0.787c-0.327,0.761,0.026,1.643,0.787,1.97c1.643,0.705,3.389,1.062,5.189,1.062   c7.262,0,13.17-5.908,13.17-13.17S47.592,26.161,40.33,26.161z" fill="#231F20"/></g><g><path d="M30.161,36.585c0-1.417-0.728-3.298-0.161-4.585c-0.926-0.374-0.803-0.283-1.712-0.698   c-0.727,1.66-1.127,3.459-1.127,5.283c0,1.229,0.17,2.446,0.503,3.617c0.188,0.659,0.788,1.089,1.441,1.089   c0.136,0,0.275-0.019,0.413-0.058c0.796-0.227,1.258-1.058,1.031-1.854C30.291,38.476,30.161,37.536,30.161,36.585z" fill="#77B3D4"/></g><path d="M29.106,39.79  c-0.29-1.018-0.446-2.094-0.446-3.205c0-6.445,5.225-11.67,11.67-11.67S52,30.14,52,36.585s-5.225,11.67-11.67,11.67  c-1.633,0-3.187-0.335-4.598-0.941" fill="none" stroke="#77B3D4" stroke-linecap="round" stroke-miterlimit="10" stroke-width="3"/><path d="M31.185,32.55c0.184-0.003,0.366-0.007,0.55,0c0.004,0,0.007,0.002,0.01,0.003l2.245-1.347  c-1.786-2.285-4.327-3.976-7.326-4.689c-0.806-0.193-1.615,0.306-1.807,1.112c-0.191,0.806,0.307,1.615,1.112,1.807  C28.053,29.931,29.841,31.047,31.185,32.55z" fill="#231F20" opacity="0.2"/><g><path d="M25.97,26.691c3.183,0.757,5.699,2.941,6.947,5.783c0.374-0.355,0.761-0.715,1.26-0.882   c0.48-0.16,0.972-0.27,1.461-0.393c-1.626-3.651-4.874-6.453-8.974-7.428c-0.806-0.193-1.615,0.306-1.807,1.112   C24.666,25.69,25.164,26.499,25.97,26.691z" fill="#76C2AF"/></g></svg>