<?xml version="1.0" ?><svg enable-background="new 0 0 64 64" height="64px" version="1.1" viewBox="0 0 64 64" width="64px" xml:space="preserve" xmlns="http://www.w3.org/2000/svg" xmlns:xlink="http://www.w3.org/1999/xlink"><g id="Layer_1"><g><circle cx="32" cy="32" fill="#C75C5C" r="32"/></g><g opacity="0.2"><g><path d="M44,38c-6.188,0-8.187-2.868-8.187-2.868L16,14c0,19.062,19.525,24.06,19.525,30.259     c0,1.896,0.476,3.467,1.035,4.667C37.729,51.895,40.616,54,44,54c4.418,0,8-3.582,8-8S48.418,38,44,38z M44,50     c-2.206,0-4-1.794-4-4s1.794-4,4-4s4,1.794,4,4S46.206,50,44,50z" fill="#231F20"/></g></g><g><g><path d="M44,36c-6.188,0-8.187-2.868-8.187-2.868L16,12c0,19.062,19.525,24.06,19.525,30.259     c0,1.896,0.476,3.467,1.035,4.667C37.729,49.895,40.616,52,44,52c4.418,0,8-3.582,8-8S48.418,36,44,36z M44,48     c-2.206,0-4-1.794-4-4s1.794-4,4-4s4,1.794,4,4S46.206,48,44,48z" fill="#E0E0D1"/></g></g><g opacity="0.2"><path d="M28.187,35.132c0,0-1.999,2.868-8.187,2.868c-4.418,0-8,3.582-8,8s3.582,8,8,8    c3.384,0,6.271-2.105,7.44-5.074c0.559-1.201,1.035-2.771,1.035-4.667C28.475,38.06,48,33.062,48,14L28.187,35.132z M20,50    c-2.206,0-4-1.794-4-4s1.794-4,4-4s4,1.794,4,4S22.206,50,20,50z" fill="#231F20"/></g><g><path d="M28.187,33.132c0,0-1.999,2.868-8.187,2.868c-4.418,0-8,3.582-8,8s3.582,8,8,8    c3.384,0,6.271-2.105,7.44-5.074c0.559-1.201,1.035-2.771,1.035-4.667C28.475,36.06,48,31.062,48,12L28.187,33.132z M20,48    c-2.206,0-4-1.794-4-4s1.794-4,4-4s4,1.794,4,4S22.206,48,20,48z" fill="#E0E0D1"/></g><g><circle cx="32" cy="33" fill="#4F5D73" r="1.5"/></g></g><g id="Layer_2"/></svg>