<?xml version="1.0" ?><svg enable-background="new 0 0 64 64" height="64px" id="Layer_1" version="1.1" viewBox="0 0 64 64" width="64px" xml:space="preserve" xmlns="http://www.w3.org/2000/svg" xmlns:xlink="http://www.w3.org/1999/xlink"><circle cx="32" cy="32" fill="#4F5D73" r="32"/><g opacity="0.2"><g><path d="M32,60c-1.104,0-2-0.896-2-2V10c0-1.104,0.896-2,2-2s2,0.896,2,2v48C34,59.104,33.104,60,32,60z" fill="#231F20"/></g><g><path d="M56,36H8c-1.104,0-2-0.896-2-2s0.896-2,2-2h48c1.104,0,2,0.896,2,2S57.104,36,56,36z" fill="#231F20"/></g><g><path d="M48.971,52.971c-0.512,0-1.024-0.195-1.414-0.586L13.615,18.443c-0.781-0.781-0.781-2.047,0-2.828    c0.78-0.781,2.048-0.781,2.828,0l33.941,33.941c0.781,0.781,0.781,2.047,0,2.828C49.995,52.775,49.482,52.971,48.971,52.971z" fill="#231F20"/></g><g><path d="M15.029,52.971c-0.512,0-1.024-0.195-1.414-0.586c-0.781-0.781-0.781-2.047,0-2.828l33.941-33.941    c0.78-0.781,2.048-0.781,2.828,0c0.781,0.781,0.781,2.047,0,2.828L16.443,52.385C16.053,52.775,15.541,52.971,15.029,52.971z" fill="#231F20"/></g></g><g><line fill="none" stroke="#E0995E" stroke-linecap="round" stroke-miterlimit="10" stroke-width="4" x1="32" x2="32" y1="8" y2="56"/><line fill="none" stroke="#E0995E" stroke-linecap="round" stroke-miterlimit="10" stroke-width="4" x1="56" x2="8" y1="32" y2="32"/><line fill="none" stroke="#E0995E" stroke-linecap="round" stroke-miterlimit="10" stroke-width="4" x1="48.971" x2="15.029" y1="48.97" y2="15.029"/><line fill="none" stroke="#E0995E" stroke-linecap="round" stroke-miterlimit="10" stroke-width="4" x1="15.029" x2="48.971" y1="48.97" y2="15.029"/></g><path d="M32,18c8.822,0,16,7.178,16,16s-7.178,16-16,16s-16-7.178-16-16S23.178,18,32,18 M32,14  c-11.046,0-20,8.954-20,20s8.954,20,20,20s20-8.954,20-20S43.046,14,32,14L32,14z" fill="#231F20" opacity="0.2"/><g><path d="M32,16c8.822,0,16,7.178,16,16s-7.178,16-16,16s-16-7.178-16-16S23.178,16,32,16 M32,12   c-11.046,0-20,8.954-20,20s8.954,20,20,20s20-8.954,20-20S43.046,12,32,12L32,12z" fill="#F5CF87"/></g><circle cx="32" cy="32" fill="#4F5D73" r="6"/><g opacity="0.2"><path d="M32,44c-5.514,0-10-4.486-10-10s4.486-10,10-10s10,4.486,10,10S37.514,44,32,44z M32,28   c-3.309,0-6,2.691-6,6s2.691,6,6,6s6-2.691,6-6S35.309,28,32,28z" fill="#231F20"/></g><circle cx="32" cy="32" fill="none" r="8" stroke="#F5CF87" stroke-miterlimit="10" stroke-width="4"/></svg>