<?xml version="1.0" ?><svg enable-background="new 0 0 64 64" height="64px" id="Layer_1" version="1.1" viewBox="0 0 64 64" width="64px" xml:space="preserve" xmlns="http://www.w3.org/2000/svg" xmlns:xlink="http://www.w3.org/1999/xlink"><circle cx="32" cy="32" fill="#4F5D73" r="32"/><path d="M44.165,26.583c0,0-3.896-6.583-5.584-6.583h-9.168c-1.688,0-5.584,6.583-5.584,6.583l0,0  c0,3.084,0.84,4.583,2.528,4.583h15.28C43.325,31.167,44.165,29.667,44.165,26.583L44.165,26.583z" fill="#F5CF87"/><path d="M20.829,38.292c0,0,4.026,6.583,5.769,6.583h15.672c1.744,0,5.769-6.583,5.769-6.583l0,0  c0-3.084-0.868-4.583-2.612-4.583H23.441C21.698,33.708,20.829,35.208,20.829,38.292L20.829,38.292z" fill="#F5CF87"/><path d="M15.961,35.989c0,1.094-2.887,5.981-3.981,5.981l0,0c-1.094,0-1.981-0.887-1.981-1.981V26.008  c0-1.094,0.887-1.981,1.981-1.981l0,0c1.094,0,3.981,4.887,3.981,5.981V35.989z" fill="#E0995E"/><path d="M56,34.998c0-5.523-8.85-9-21-9s-27,7.314-27,9c0,1.585,14.85,9,27,9S56,40.521,56,34.998z" fill="#231F20" opacity="0.2"/><path d="M56,32.998c0-5.523-8.85-9-21-9s-27,7.314-27,9c0,1.585,14.85,9,27,9S56,38.521,56,32.998z" fill="#F5CF87"/><circle cx="36" cy="32" fill="#E0995E" r="3"/><circle cx="46" cy="32" fill="#E0995E" r="3"/><circle cx="26" cy="32" fill="#E0995E" r="3"/></svg>