<?xml version="1.0" ?><svg enable-background="new 0 0 64 64" height="64px" id="Layer_1" version="1.1" viewBox="0 0 64 64" width="64px" xml:space="preserve" xmlns="http://www.w3.org/2000/svg" xmlns:xlink="http://www.w3.org/1999/xlink"><circle cx="32" cy="32" fill="#4F5D73" r="32"/><g><path d="M20,50c0,1.105-0.895,2-2,2h-2c-1.105,0-2-0.895-2-2V39c0-1.105,0.895-2,2-2h2   c1.105,0,2,0.895,2,2V50z" fill="#231F20" opacity="0.2"/><path d="M50,50c0,1.105-0.895,2-2,2h-2c-1.105,0-2-0.895-2-2V39c0-1.105,0.895-2,2-2h2   c1.105,0,2,0.895,2,2V50z" fill="#231F20" opacity="0.2"/><path d="M20,48c0,1.105-0.895,2-2,2h-2c-1.105,0-2-0.895-2-2V37c0-1.105,0.895-2,2-2h2c1.105,0,2,0.895,2,2V48z" fill="#E0995E"/><path d="M50,48c0,1.105-0.895,2-2,2h-2c-1.105,0-2-0.895-2-2V37c0-1.105,0.895-2,2-2h2c1.105,0,2,0.895,2,2V48z" fill="#E0995E"/><g opacity="0.2"><path d="M44,38H20c-3.309,0-6-2.691-6-6l0.039-0.392l2.03-7.129C16.995,21.048,19.212,19,22,19h20    c2.788,0,5.005,2.048,5.931,5.479l0.03,0.129L50,32C50,35.309,47.309,38,44,38z M18.007,32.165C18.091,33.19,18.953,34,20,34h24    c1.047,0,1.909-0.81,1.993-1.835l-1.94-6.704C43.833,24.674,43.222,23,42,23H22c-1.222,0-1.833,1.674-2.053,2.461L18.007,32.165z" fill="#231F20"/></g><path d="M48.375,32c0,2.209-2.166,2-4.375,2H20   c-2.209,0-4.562,0.209-4.562-2L18,23c0.54-2,1.791-4,4-4h20c2.209,0,3.46,2,4,4L48.375,32z" fill="none" stroke="#F5CF87" stroke-miterlimit="10" stroke-width="4"/><g opacity="0.2"><path d="M52,42c0,2.209-1.791,4-4,4H16c-2.209,0-4-1.791-4-4v-4c0-2.209,1.791-4,4-4h32c2.209,0,4,1.791,4,4V42z" fill="#231F20"/><path d="M48,48H16c-3.309,0-6-2.691-6-6v-4c0-3.309,2.691-6,6-6h32c3.309,0,6,2.691,6,6v4    C54,45.309,51.309,48,48,48z M16,36c-1.103,0-2,0.897-2,2v4c0,1.103,0.897,2,2,2h32c1.103,0,2-0.897,2-2v-4c0-1.103-0.897-2-2-2    H16z" fill="#231F20"/></g><path d="M52,40c0,2.209-1.791,4-4,4H16   c-2.209,0-4-1.791-4-4v-4c0-2.209,1.791-4,4-4h32c2.209,0,4,1.791,4,4V40z" fill="#F5CF87" stroke="#F5CF87" stroke-miterlimit="10" stroke-width="4"/><path d="M21,39c0,2.209-1.791,4-4,4l0,0   c-2.209,0-4-1.791-4-4l0,0c0-2.209,1.791-4,4-4l0,0C19.209,35,21,36.791,21,39L21,39z" fill="#E0995E" stroke="#F5CF87" stroke-miterlimit="10" stroke-width="2"/><path d="M51,39c0,2.209-1.791,4-4,4l0,0   c-2.209,0-4-1.791-4-4l0,0c0-2.209,1.791-4,4-4l0,0C49.209,35,51,36.791,51,39L51,39z" fill="#E0995E" stroke="#F5CF87" stroke-miterlimit="10" stroke-width="2"/><path d="M37.562,17.725c0,0.893,0.125,0.808-0.768,0.808   h-9.7c-0.893,0-0.844,0.085-0.844-0.808l0.036-0.638c0.218-0.808,0.724-1.617,1.617-1.617h8.083c0.893,0,1.399,0.808,1.617,1.617   L37.562,17.725z" fill="#4F5D73" stroke="#F5CF87" stroke-miterlimit="10" stroke-width="4"/></g></svg>