<?xml version="1.0" ?><svg enable-background="new 0 0 64 64" height="64px" id="Layer_1" version="1.1" viewBox="0 0 64 64" width="64px" xml:space="preserve" xmlns="http://www.w3.org/2000/svg" xmlns:xlink="http://www.w3.org/1999/xlink"><circle cx="32" cy="32" fill="#E0E0D1" r="32"/><g opacity="0.2"><path d="M51,36.91c0,4.694-3.806,8.5-8.5,8.5s-8.5-3.806-8.5-8.5C34,30.728,42.5,23,42.5,23S51,30.728,51,36.91z" fill="#231F20"/></g><g opacity="0.2"><path d="M11.001,42.5c-0.514,0-1.014-0.264-1.293-0.738c-0.421-0.714-0.184-1.633,0.53-2.054l39-23   c0.715-0.42,1.634-0.183,2.054,0.53c0.421,0.714,0.184,1.633-0.53,2.054l-39,23C11.523,42.433,11.26,42.5,11.001,42.5z" fill="#231F20"/></g><line fill="none" stroke="#E0995E" stroke-linecap="round" stroke-miterlimit="10" stroke-width="3" x1="11" x2="50" y1="39" y2="16"/><path d="M51,34.909c0,4.694-3.806,8.5-8.5,8.5s-8.5-3.806-8.5-8.5C34,28.727,42.5,21,42.5,21S51,28.727,51,34.909z" fill="#C75C5C"/><path d="M39.817,21.644c0.559-1.118,0-4-4-3c-4.947,1.237-5-2-5-2s-1.912,4.664,3.48,6.256  C36.817,23.644,38.817,23.644,39.817,21.644z" fill="#231F20" opacity="0.2"/><path d="M39.817,20c0.559-1.118,0-4-4-3c-4.947,1.237-5-2-5-2s-1.912,4.664,3.48,6.256  C36.817,22,38.817,22,39.817,20z" fill="#C75C5C"/><path d="M45.494,21.912c-0.836,0.929-1.062,3.856,3.06,3.954c5.098,0.121,4.29,3.256,4.29,3.256  s3.081-3.989-1.694-6.955C48.918,20.781,46.989,20.25,45.494,21.912z" fill="#231F20" opacity="0.2"/><path d="M45.494,20.035c-0.836,0.929-1.062,3.856,3.06,3.954c5.098,0.121,4.29,3.256,4.29,3.256  s3.081-3.989-1.694-6.955C48.918,18.903,46.989,18.372,45.494,20.035z" fill="#C75C5C"/><circle cx="42.5" cy="21.5" fill="#231F20" opacity="0.2" r="4.5"/><circle cx="42.5" cy="20" fill="#C75C5C" r="4"/></svg>