<?xml version="1.0" ?><svg enable-background="new 0 0 64 64" height="64px" id="Layer_1" version="1.1" viewBox="0 0 64 64" width="64px" xml:space="preserve" xmlns="http://www.w3.org/2000/svg" xmlns:xlink="http://www.w3.org/1999/xlink"><circle cx="32" cy="32" fill="#76C2AF" r="32"/><g opacity="0.2"><path d="M32,22c-1.105,0-2-0.896-2-2v-4c0-1.104,0.895-2,2-2c1.104,0,2,0.896,2,2v4C34,21.104,33.104,22,32,22z" fill="#231F20"/></g><g><path d="M32,20c-1.105,0-2-0.896-2-2v-4c0-1.104,0.895-2,2-2c1.104,0,2,0.896,2,2v4C34,19.104,33.104,20,32,20z" fill="#4F5D73"/></g><g opacity="0.2"><path d="M36,18h-8c-1.105,0-2-0.896-2-2s0.895-2,2-2h8c1.104,0,2,0.896,2,2S37.104,18,36,18z" fill="#231F20"/></g><g><path d="M36,16h-8c-1.105,0-2-0.896-2-2s0.895-2,2-2h8c1.104,0,2,0.896,2,2S37.104,16,36,16z" fill="#4F5D73"/></g><g opacity="0.2"><path d="M32,54c-1.105,0-2-0.896-2-2V28c0-1.104,0.895-2,2-2c1.104,0,2,0.896,2,2v24C34,53.104,33.104,54,32,54z" fill="#231F20"/></g><g><path d="M32,52c-1.105,0-2-0.896-2-2V26c0-1.104,0.895-2,2-2c1.104,0,2,0.896,2,2v24C34,51.104,33.104,52,32,52z" fill="#E0E0D1"/></g><g opacity="0.2"><path d="M48.002,54c-0.647,0-1.281-0.312-1.666-0.891L32,31.605L17.664,53.109   c-0.612,0.919-1.854,1.169-2.773,0.555c-0.919-0.613-1.168-1.854-0.555-2.774l16-24C30.707,26.334,31.331,26,32,26   c0.669,0,1.293,0.334,1.664,0.891l16,24c0.613,0.919,0.364,2.161-0.555,2.774C48.769,53.892,48.383,54,48.002,54z" fill="#231F20"/></g><g><path d="M48.002,52c-0.647,0-1.281-0.312-1.666-0.891L32,29.605L17.664,51.109   c-0.612,0.919-1.854,1.169-2.773,0.555c-0.919-0.613-1.168-1.854-0.555-2.774l16-24C30.707,24.334,31.331,24,32,24   c0.669,0,1.293,0.334,1.664,0.891l16,24c0.613,0.919,0.364,2.161-0.555,2.774C48.769,51.892,48.383,52,48.002,52z" fill="#FFFFFF"/></g></svg>