<?xml version="1.0" ?><svg enable-background="new 0 0 64 64" height="64px" version="1.1" viewBox="0 0 64 64" width="64px" xml:space="preserve" xmlns="http://www.w3.org/2000/svg" xmlns:xlink="http://www.w3.org/1999/xlink"><g id="Layer_1"><g><circle cx="32" cy="32" fill="#77B3D4" r="32"/></g><g opacity="0.2"><g><path d="M26,56c-4.411,0-8-3.589-8-8c0-1.104,0.896-2,2-2s2,0.896,2,2c0,2.206,1.794,4,4,4s4-1.794,4-4V12     c0-1.104,0.896-2,2-2s2,0.896,2,2v36C34,52.411,30.411,56,26,56z" fill="#231F20"/></g></g><g><path d="M26,54c-4.411,0-8-3.589-8-8c0-1.104,0.896-2,2-2s2,0.896,2,2c0,2.206,1.794,4,4,4s4-1.794,4-4V10    c0-1.104,0.896-2,2-2s2,0.896,2,2v36C34,50.411,30.411,54,26,54z" fill="#4F5D73"/></g><g opacity="0.2"><path d="M32,12C18.745,12,8,22.745,8,36c5.045-3.409,10.909,0,10.909,0c0-1.205,5.861-3.273,13.091-3.273    S45.091,34.795,45.091,36c0,0,5.795-3.409,10.909,0C56,22.745,45.255,12,32,12z" fill="#231F20"/></g><g><g><path d="M18.909,34c0,0,0.273-17.659,13.091-24C18.745,10,8,20.745,8,34C13.045,30.591,18.909,34,18.909,34z" fill="#C75C5C"/></g><g><path d="M45.091,34c0,0,5.795-3.409,10.909,0c0-13.255-10.745-24-24-24C44.818,16.341,45.091,34,45.091,34z" fill="#C75C5C"/></g><g><path d="M18.909,34c0-1.205,5.861-3.273,13.091-3.273S45.091,32.795,45.091,34c0,0-0.273-17.659-13.091-24     C19.182,16.341,18.909,34,18.909,34z" fill="#FFFFFF"/></g></g><g><path d="M32,13c-1.104,0-2-0.896-2-2v-1c0-1.104,0.896-2,2-2s2,0.896,2,2v1C34,12.104,33.104,13,32,13z" fill="#4F5D73"/></g></g><g id="Layer_2"/></svg>