<?xml version="1.0" ?><svg enable-background="new 0 0 64 64" height="64px" id="Layer_1" version="1.1" viewBox="0 0 64 64" width="64px" xml:space="preserve" xmlns="http://www.w3.org/2000/svg" xmlns:xlink="http://www.w3.org/1999/xlink"><circle cx="32" cy="32" fill="#4F5D73" r="32"/><g opacity="0.2"><path d="M21.5,57.5c-0.829,0-1.5-0.671-1.5-1.5V16c0-0.829,0.671-1.5,1.5-1.5S23,15.171,23,16v40   C23,56.829,22.329,57.5,21.5,57.5z" fill="#231F20"/></g><path d="M49.588,23.058L44,21.941v0l-2.412-0.482l-3.813-0.763l-2.187-0.437l-6-1.2L26,18.341V22v20  v3.659l3.588-0.718l6-1.2L38,43.259v0l3.588-0.718L44,42.06v0l5.588-1.118C50.991,40.661,52,39.43,52,38V26  C52,24.57,50.991,23.339,49.588,23.058z" fill="#231F20" opacity="0.2"/><line fill="none" stroke="#E0E0D1" stroke-linecap="round" stroke-miterlimit="10" stroke-width="3" x1="21.5" x2="21.5" y1="54" y2="14"/><g><g><polygon fill="#E0995E" points="27.5,18.17 36.5,19.971 36.5,40.029 27.5,41.83   "/><path d="M29,20l6,1.2v17.6L29,40V20 M26,16.341V20v20v3.659l3.588-0.718l6-1.2L38,41.259V38.8V21.2v-2.459    l-2.412-0.482l-6-1.2L26,16.341L26,16.341z" fill="#E0995E"/></g><g><path d="M43,38.7c-0.344,0-0.681-0.118-0.951-0.34c-0.348-0.285-0.549-0.711-0.549-1.16V22.8    c0-0.449,0.201-0.875,0.549-1.16c0.271-0.222,0.607-0.34,0.951-0.34c0.098,0,0.196,0.01,0.294,0.029l6,1.2    C49.995,22.669,50.5,23.285,50.5,24v12c0,0.715-0.505,1.331-1.206,1.471l-6,1.2C43.196,38.69,43.098,38.7,43,38.7z" fill="#E0995E"/><path d="M43,22.8l6,1.2v12l-6,1.2V22.8 M43,19.8c-0.688,0-1.361,0.237-1.902,0.68C40.403,21.05,40,21.901,40,22.8    v14.4c0,0.899,0.403,1.75,1.098,2.32c0.541,0.443,1.214,0.68,1.902,0.68c0.196,0,0.393-0.019,0.588-0.058l6-1.2    C50.991,38.661,52,37.43,52,36V24c0-1.43-1.009-2.661-2.412-2.942l-6-1.2C43.393,19.819,43.196,19.8,43,19.8L43,19.8z" fill="#E0995E"/></g><g><g><polygon fill="#FFFFFF" points="35.5,19.771 42.5,21.17 42.5,38.83 35.5,40.229    "/><path d="M37,21.6l4,0.8v15.2l-4,0.8V21.6 M34,17.941V21.6v16.8v3.659l3.588-0.718l4-0.8L44,40.06V37.6V22.4V19.94     l-2.412-0.482l-4-0.8L34,17.941L34,17.941z" fill="#FFFFFF"/></g></g></g></svg>