<?xml version="1.0" ?><svg enable-background="new 0 0 64 64" height="64px" id="Layer_1" version="1.1" viewBox="0 0 64 64" width="64px" xml:space="preserve" xmlns="http://www.w3.org/2000/svg" xmlns:xlink="http://www.w3.org/1999/xlink"><circle cx="32" cy="32" fill="#E0995E" r="32"/><g opacity="0.2"><polygon fill="#231F20" points="43.281,34 20.719,34 17.722,42 46.278,42  "/><path d="M35.895,14.288c-2.142-5.718-5.648-5.718-7.79,0L23.717,26h16.567L35.895,14.288z" fill="#231F20"/><path d="M14,48c-1.105,0-2,0.895-2,2c0,1.105,0.895,2,2,2h36c1.105,0,2-0.895,2-2c0-1.105-0.895-2-2-2H14z" fill="#231F20"/></g><g><polygon fill="#FFFFFF" points="43.281,32 20.719,32 17.722,40 46.278,40  "/><path d="M35.895,12.288c-2.142-5.718-5.648-5.718-7.79,0L23.717,24h16.567L35.895,12.288z" fill="#FFFFFF"/><path d="M14,46c-1.105,0-2,0.895-2,2c0,1.105,0.895,2,2,2h36c1.105,0,2-0.895,2-2c0-1.105-0.895-2-2-2H14z" fill="#FFFFFF"/></g></svg>