<?xml version="1.0" ?><svg enable-background="new 0 0 64 64" height="64px" id="Layer_1" version="1.1" viewBox="0 0 64 64" width="64px" xml:space="preserve" xmlns="http://www.w3.org/2000/svg" xmlns:xlink="http://www.w3.org/1999/xlink"><circle cx="32" cy="32" fill="#C75C5C" r="32"/><g opacity="0.2"><polygon fill="#231F20" points="32,16.846 17.641,49.154 32,41.974 46.359,49.154  "/><path d="M46.359,50.5c-0.205,0-0.411-0.046-0.602-0.142L32,43.48l-13.757,6.878   c-0.507,0.255-1.121,0.163-1.532-0.231c-0.411-0.393-0.531-1.001-0.301-1.52L30.77,16.299C30.986,15.813,31.468,15.5,32,15.5   c0.532,0,1.014,0.313,1.23,0.799l14.359,32.308c0.23,0.519,0.11,1.127-0.301,1.52C47.033,50.372,46.698,50.5,46.359,50.5z    M32,40.628c0.206,0,0.413,0.047,0.602,0.142l11.003,5.502L32,20.161L20.395,46.272l11.003-5.502   C31.587,40.676,31.794,40.628,32,40.628z" fill="#231F20"/></g><polygon fill="#FFFFFF" points="  32,15 17.921,46.677 32,39.638 46.079,46.677 " stroke="#FFFFFF" stroke-linecap="round" stroke-linejoin="round" stroke-miterlimit="10" stroke-width="3"/></svg>