<?xml version="1.0" ?><svg enable-background="new 0 0 64 64" height="64px" id="Layer_1" version="1.1" viewBox="0 0 64 64" width="64px" xml:space="preserve" xmlns="http://www.w3.org/2000/svg" xmlns:xlink="http://www.w3.org/1999/xlink"><circle cx="32" cy="32" fill="#77B3D4" r="32"/><g opacity="0.2"><ellipse cx="32" cy="30" fill="#231F20" rx="20" ry="19.969"/></g><path d="M38,54.969c0,1.657-1.343,3-3,3h-6c-1.657,0-3-1.343-3-3l0,0c0-1.657,1.343-3,3-3h6  C36.657,51.969,38,53.312,38,54.969L38,54.969z" fill="#231F20" opacity="0.2"/><g><ellipse cx="32" cy="28.031" fill="#4F5D73" rx="20" ry="19.969"/></g><g><ellipse cx="32" cy="28.031" fill="#FFFFFF" rx="16" ry="19.969"/></g><g><ellipse cx="32" cy="28.031" fill="#4F5D73" rx="8" ry="19.969"/></g><path d="M38,53c0,1.657-1.343,3-3,3h-6c-1.657,0-3-1.343-3-3l0,0c0-1.657,1.343-3,3-3h6C36.657,50,38,51.343,38,53  L38,53z" fill="#C75C5C"/></svg>