<?xml version="1.0" ?><svg enable-background="new 0 0 64 64" height="64px" id="Layer_1" version="1.1" viewBox="0 0 64 64" width="64px" xml:space="preserve" xmlns="http://www.w3.org/2000/svg" xmlns:xlink="http://www.w3.org/1999/xlink"><circle cx="32" cy="32" fill="#76C2AF" r="32"/><path d="M48,50c0,1.105-0.895,2-2,2H18c-1.105,0-2-0.895-2-2V16c0-1.105,0.895-2,2-2h28  c1.105,0,2,0.895,2,2V50z" fill="#231F20" opacity="0.2"/><path d="M48,48c0,1.105-0.895,2-2,2H18c-1.105,0-2-0.895-2-2V14c0-1.105,0.895-2,2-2h28c1.105,0,2,0.895,2,2V48z" fill="#E0E0D1"/><path d="M46,14H18c-1.105,0-2,0.895-2,2v6c0,1.105,0,0,0,0l15.5,2c0.443,0,1.5,0.375,1.5,1.327  c0,0,0,1.288,0,1.673c0,0.828,0.672,1.5,1.5,1.5c0.828,0,1.5-0.672,1.5-1.5s0.672-1.5,1.5-1.5c0.828,0,1.5,0.672,1.5,1.5v13.5  c0,0.828,0.672,1.5,1.5,1.5c0.828,0,1.5-0.672,1.5-1.5V30c0-0.828,0.672-1.5,1.5-1.5c0.828,0,1.5,0.672,1.5,1.5v2.5  c0,0.828,0.672,1.5,1.5,1.5c0.828,0,1.5-0.672,1.5-1.5V16C48,14.895,47.105,14,46,14z" fill="#231F20" opacity="0.2"/><path d="M46,12H18c-1.105,0-2,0.895-2,2v6c0,1.105,0,0,0,0l15.5,2c0.443,0,1.5,0.375,1.5,1.327c0,0,0,1.288,0,1.673  c0,0.828,0.672,1.5,1.5,1.5c0.828,0,1.5-0.672,1.5-1.5s0.672-1.5,1.5-1.5c0.828,0,1.5,0.672,1.5,1.5v13.5c0,0.828,0.672,1.5,1.5,1.5  c0.828,0,1.5-0.672,1.5-1.5V28c0-0.828,0.672-1.5,1.5-1.5c0.828,0,1.5,0.672,1.5,1.5v2.5c0,0.828,0.672,1.5,1.5,1.5  c0.828,0,1.5-0.672,1.5-1.5V14C48,12.895,47.105,12,46,12z" fill="#C75C5C"/><g opacity="0.2"><path d="M32,34c-9.647,0-17.495-7.848-17.495-17.495c0-0.552,0.448-1,1-1c0.552,0,1,0.448,1,1   C16.505,25.049,23.456,32,32,32c8.544,0,15.495-6.951,15.495-15.495c0-0.552,0.448-1,1-1c0.552,0,1,0.448,1,1   C49.495,26.152,41.647,34,32,34z" fill="#231F20"/></g><path d="M48.495,14.505  C48.495,23.615,41.11,31,32,31s-16.495-7.385-16.495-16.495" fill="none" stroke="#4F5D73" stroke-linecap="round" stroke-miterlimit="10" stroke-width="2"/></svg>