<?xml version="1.0" ?><svg enable-background="new 0 0 64 64" height="64px" id="Layer_1" version="1.1" viewBox="0 0 64 64" width="64px" xml:space="preserve" xmlns="http://www.w3.org/2000/svg" xmlns:xlink="http://www.w3.org/1999/xlink"><circle cx="32" cy="31.755" fill="#76C2AF" r="32"/><g opacity="0.2"><path d="M32,33c4.963,0,9,4.037,9,9s-4.037,9-9,9s-9-4.037-9-9S27.037,33,32,33 M32,29c-7.18,0-13,5.82-13,13   s5.82,13,13,13s13-5.82,13-13S39.18,29,32,29L32,29z" fill="#231F20"/></g><g opacity="0.2"><path d="M28.002,46.666c-0.646,0-1.281-0.312-1.666-0.891c-0.613-0.919-0.364-2.161,0.555-2.773l8-5.333   c0.918-0.614,2.161-0.364,2.773,0.555c0.613,0.919,0.364,2.161-0.555,2.773l-8,5.333C28.769,46.558,28.383,46.666,28.002,46.666z" fill="#231F20"/></g><g><path d="M32,31c4.963,0,9,4.037,9,9s-4.037,9-9,9s-9-4.037-9-9S27.037,31,32,31 M32,27c-7.18,0-13,5.82-13,13   s5.82,13,13,13s13-5.82,13-13S39.18,27,32,27L32,27z" fill="#4F5D73"/></g><line fill="none" stroke="#E0E0D1" stroke-linecap="round" stroke-miterlimit="10" stroke-width="4" x1="32" x2="32" y1="40" y2="14.406"/><line fill="none" stroke="#FFFFFF" stroke-linecap="round" stroke-miterlimit="10" stroke-width="4" x1="28" x2="36" y1="42.667" y2="37.333"/><g opacity="0.2"><path d="M31.37,17.502c-2.779,0-5.152-0.953-6.479-1.838c-0.919-0.613-1.167-1.854-0.555-2.773   c0.61-0.916,1.844-1.167,2.764-0.561c0.22,0.141,4.896,3.071,9.62-0.866c0.848-0.707,2.109-0.593,2.817,0.256   c0.707,0.849,0.592,2.109-0.256,2.817C36.623,16.752,33.836,17.502,31.37,17.502z" fill="#231F20"/></g><path d="M26,12c0,0,6,4,12-1" fill="none" stroke="#4F5D73" stroke-linecap="round" stroke-miterlimit="10" stroke-width="4"/></svg>