<?xml version="1.0" ?><svg enable-background="new 0 0 64 64" height="64px" id="Layer_1" version="1.1" viewBox="0 0 64 64" width="64px" xml:space="preserve" xmlns="http://www.w3.org/2000/svg" xmlns:xlink="http://www.w3.org/1999/xlink"><circle cx="32" cy="32" fill="#76C2AF" r="32"/><rect fill="#4F5D73" height="8" width="11" x="31" y="30"/><path d="M34,50c0,1.105-0.895,2-2,2H16c-1.105,0-2-0.895-2-2V26c0-1.105,0.895-2,2-2h16  c1.105,0,2,0.895,2,2V50z" fill="#231F20" opacity="0.2"/><path d="M55,46c0,1.105-0.895,2-2,2H39c-1.105,0-2-0.895-2-2V26c0-1.105,0.895-2,2-2h14  c1.105,0,2,0.895,2,2V46z" fill="#231F20" opacity="0.2"/><rect fill="#231F20" height="10" opacity="0.2" width="11" x="31" y="30"/><path d="M34,48c0,1.105-0.895,2-2,2H16c-1.105,0-2-0.895-2-2V24c0-1.105,0.895-2,2-2h16c1.105,0,2,0.895,2,2V48z" fill="#4F5D73"/><path d="M55,44c0,1.105-0.895,2-2,2H39c-1.105,0-2-0.895-2-2V24c0-1.105,0.895-2,2-2h14c1.105,0,2,0.895,2,2V44z" fill="#4F5D73"/><g><path d="M24,15c-4.963,0-9,4.037-9,9s4.037,9,9,9s9-4.037,9-9S28.963,15,24,15z" fill="#4F5D73"/></g><circle cx="18.5" cy="42.5" fill="#231F20" opacity="0.2" r="2.5"/><circle cx="18.5" cy="40.5" fill="#C75C5C" r="2.5"/><path d="M24,14c-6.627,0-12,5.373-12,12s5.373,12,12,12s12-5.373,12-12S30.627,14,24,14z M24,35  c-4.963,0-9-4.037-9-9s4.037-9,9-9s9,4.037,9,9S28.963,35,24,35z" fill="#231F20" opacity="0.2"/><path d="M24,12c-6.627,0-12,5.373-12,12s5.373,12,12,12s12-5.373,12-12S30.627,12,24,12z M24,33  c-4.963,0-9-4.037-9-9s4.037-9,9-9s9,4.037,9,9S28.963,33,24,33z" fill="#E0E0D1"/></svg>